<?xml version="1.0" standalone="no"?><!DOCTYPE svg PUBLIC "-//W3C//DTD SVG 1.1//EN" "http://www.w3.org/Graphics/SVG/1.1/DTD/svg11.dtd"><svg t="1618131670242" class="icon" viewBox="0 0 1024 1024" version="1.1" xmlns="http://www.w3.org/2000/svg" p-id="17955" xmlns:xlink="http://www.w3.org/1999/xlink" width="200" height="200"><defs><style type="text/css"></style></defs><path d="M550.71 333.37a5.48 7.76 0 1 0 10.96 0 5.48 7.76 0 1 0-10.96 0Z" p-id="17956" fill="#1296db"></path><path d="M568.64 369.85c23.82 0 43.2-26.36 43.2-58.77a77.52 77.52 0 0 0-2.72-20.51c-4.28-15.58-13.29-28-24.63-34.15a33.22 33.22 0 0 0-15.85-4.11c-23.83 0-43.21 26.37-43.21 58.77s19.38 58.77 43.21 58.77z m0-105.08c17.15 0 31.09 20.77 31.09 46.31s-13.95 46.31-31.09 46.31-31.11-20.78-31.11-46.31 13.95-46.31 31.11-46.31z" p-id="17957" fill="#1296db"></path><path d="M568.64 373c-25.55 0-46.33-27.76-46.33-61.89s20.78-61.89 46.33-61.89a36.24 36.24 0 0 1 17.36 4.45c12.12 6.53 21.66 19.68 26.16 36.07a80.57 80.57 0 0 1 2.84 21.34c0 34.12-20.82 61.92-46.36 61.92z m0-117.54c-22.1 0-40.09 25-40.09 55.65s18 55.65 40.09 55.65 40.08-25 40.08-55.65a74.33 74.33 0 0 0-2.61-19.68c-4.05-14.76-12.47-26.5-23.1-32.23a30.06 30.06 0 0 0-14.37-3.77z m0 105.08c-18.87 0-34.23-22.18-34.23-49.43s15.35-49.43 34.23-49.43 34.21 22.18 34.21 49.43-15.34 49.4-34.21 49.4z m0-92.62c-15.43 0-28 19.38-28 43.19s12.56 43.19 28 43.19 28-19.38 28-43.19-12.57-43.22-28-43.22z" p-id="17958" fill="#1296db"></path><path d="M280.11 332.1a15.16 21.46 0 1 0 30.32 0 15.16 21.46 0 1 0-30.32 0Z" p-id="17959" fill="#1296db"></path><path d="M291.61 365.79c0-4.07-2.34-7.37-5.21-7.37s-5.22 3.31-5.22 7.37 2.34 7.38 5.22 7.38 5.21-3.3 5.21-7.38zM565.51 320.52c8.81 0 15.95-10.11 15.95-22.56s-7.14-22.56-15.95-22.56-15.94 10.1-15.94 22.6 7.14 22.52 15.94 22.52zM515.09 148.09c-18.3 30.7 3.88 45.46 17.11 33.58 5.69-5.13 1.17-19.48 11.39-30.39 8-8.57 26.54-15.46 41.71-1.51-12.3-25.47-52.95-30.63-70.21-1.68zM697.6 190.88c0.82 16.65 29.13 20.83 21.82-7.75-12.17-47.66-72.36-24.41-72.36-24.41 30.94-5.72 49.69 15.51 50.54 32.16zM672.35 398.48s9.94-23.28-3.73-28.45-34.85 3.88-34.85 3.88 39.81-7.75 38.58 24.57zM576 716c-3.26-19.78-4.17-39.13-4.94-56-0.46-10-0.85-18.63-1.67-25.91-1.08-9.83-2.72-14.22-3.9-16.17-3-5-5.34-7.41-6.79-8.53-1.9-1.48-2.8-1.45-3.16-1.45-0.81 0-2.22 0.66-3.91 2.52a22.23 22.23 0 0 0-2.85 4.09l-0.13 0.23a382.63 382.63 0 0 0-2.17 39.32q0 6.65 0.29 13c2.65 61.54 24 106.66 63.48 134.2l0.21 0.13A143.87 143.87 0 0 0 626.3 811c-17.57-13.69-30.94-32.16-39.78-55A202 202 0 0 1 576 716z" p-id="17960" fill="#1296db"></path><path d="M296.06 401.09c22.7 0 41.17-25.13 41.17-56s-18.47-56-41.17-56-41.18 25.14-41.18 56 18.46 56 41.18 56z m0-100.28c16.39 0 29.72 19.86 29.72 44.27s-13.33 44.27-29.72 44.27-29.74-19.86-29.74-44.27 13.34-44.27 29.74-44.27z" p-id="17961" fill="#1296db"></path><path d="M296.06 404.21c-24.43 0-44.3-26.53-44.3-59.14s19.87-59.14 44.3-59.14 44.29 26.53 44.29 59.14-19.87 59.14-44.29 59.14z m0-112c-21 0-38.06 23.73-38.06 52.9S275.07 398 296.06 398s38.05-23.73 38.05-52.9-17.11-52.92-38.05-52.92z m0 100.29c-18.12 0-32.86-21.26-32.86-47.39s14.74-47.39 32.86-47.39 32.84 21.26 32.84 47.39-14.73 47.35-32.84 47.35z m0-88.54c-14.68 0-26.62 18.46-26.62 41.15s11.94 41.15 26.62 41.15 26.6-18.46 26.6-41.15-11.94-41.18-26.6-41.18z" p-id="17962" fill="#1296db"></path><path d="M444.93 811.92c-36.05-31.74-61.57-69.9-75.77-112.72A265 265 0 0 1 356 615.36c0-3.69 0.08-7.63 0.24-12.38v-1.37a31.06 31.06 0 0 0-0.43-4.9 28.57 28.57 0 0 0-27.65-24.11c-11.68 0.07-21.08 7.45-26.66 20.86l-1.07 2.76a57.55 57.55 0 0 0-1.55 8.49c-0.09 0.73-0.19 1.5-0.28 2.32a210.8 210.8 0 0 0-1.16 23.13c0 22.11 3 65.54 23.27 108 21.88 45.7 57.72 78.52 106.52 97.54 1.52 0.59 3 1.12 4.5 1.68 5 1.86 9.89 3.62 14.66 5.18a336.49 336.49 0 0 0 71.06 15.41c-5.09-2.27-10.58-4.89-16.35-7.88a280.64 280.64 0 0 1-56.17-38.17z" p-id="17963" fill="#1296db"></path><path d="M308.43 743.93c-20.31-42.53-24.58-85.34-24.58-113.76 0-7.23 0.3-14.21 0.84-20.51-2.27-1.41-5.89-2.58-12.29-2.69h-0.83c-4.15 0-11 3.5-17 13.36-6.42 10.6-10 25.35-10 41.53a127.51 127.51 0 0 0 1.44 18.79c1.58 10.45 9 47.31 37.59 82.76 23.77 29.42 55.85 50.42 95.58 62.72-30.63-20.39-54.38-47.88-70.75-82.2zM602.46 812.48c-45.59-31.57-69.67-86.33-69.62-158.37a387.72 387.72 0 0 1 2.11-39c-0.92-4.27-1.82-8.31-2.66-11.92-6-25.32-22.66-34.34-35.1-34.37a26.32 26.32 0 0 0-20.24 9.41 36.26 36.26 0 0 0-6.66 12 57.91 57.91 0 0 0-2.92 18.91 89.3 89.3 0 0 0 1.08 13.51l0.52 3.33 0.1 0.63c5.67 35.52 12.79 66.43 21.44 93.09 10.67 32.91 23.66 59.32 39.19 79.69 12 15.73 25.46 27.9 40.76 36.84 18.14 10.59 38.9 16.62 63.09 18.43h0.53c5.29 0.36 10.66 0.51 15.85 0.55a208.42 208.42 0 0 0 33.07-2.62 180.68 180.68 0 0 0 29.76-7.32c-4-0.43-8.64-1-14-1.82-24.32-1.19-62.24-7.32-96.3-30.97z" p-id="17964" fill="#1296db"></path><path d="M518.84 807.54c-29.48-38.75-50.17-97.3-63.23-178.91l-0.54-3.5-0.55-3.54h0.05a101.31 101.31 0 0 1-0.81-12.46 75.42 75.42 0 0 1 2.07-17.95c-1.61-3.43-3.25-6.67-4.91-9.65-14.9-26.51-28.52-30-38.73-30.07a44.21 44.21 0 0 0-7.82 0.75c-15.64 2.91-23.37 7.76-28.52 17.89-3.07 6.11-5.14 14.71-6.33 26.61a40.58 40.58 0 0 1 0.35 4.94c0 0.66 0 1.31-0.07 2-0.13 3.63-0.19 7.52-0.19 11.8 0 74.29 28.37 137 84.33 186.41 44 38.81 93.64 53.67 103.15 56.26l1.87 0.5q8.1 0.37 16.49 0.38h0.34c3.75 0 7.45-0.06 11.1-0.17-26.89-9.83-49.4-26.75-68.05-51.29z" p-id="17965" fill="#1296db"></path><path d="M891.94 650a61.09 61.09 0 0 0-52.66-4.3c-4.82-22.43-23.22-44.69-47.52-56.81a70.81 70.81 0 0 0-10.85-4.34c4.85-3.71 9.1-7.24 12.88-10.65 27.3-24.67 26.19-36.79 23-43.74-8.72-19-38.35-6.25-52.59-0.13-12.3 5.31-23.94 7.68-36.37 9.55 15.4-101.08 8.6-206.44 0.22-237.92-7.62-28.72-32.65-51.55-54.08-61.45a133.35 133.35 0 0 0-39.66-11.31c4.53-15.61 10.93-26.1 17.49-28.47 5.69-2.08 14.27 1.2 24.75 9.47a35.68 35.68 0 0 1 4.34 4.32l1.87 2.16c5.8 6.74 14.66 17.08 31.15 16.11s28.44-9.08 33.92-23.13c9.8-25.11-4.75-59.42-18.55-73.55-26.72-27.3-67.48-31-94.79-8.61a105.42 105.42 0 0 0-15.35 16.54 60.2 60.2 0 0 0-5.34-8.73 73 73 0 0 0-16.1-15.72 77.31 77.31 0 0 0-37.28-14.54l-2.08-0.19a74 74 0 0 0-31.67 4.34 62 62 0 0 0-15 8.16 74.47 74.47 0 0 0-20.23 22.41c-6.81 11.65-9.9 24.15-8.92 36.15 2.22 26.92 18.7 35.91 28.33 38.88 19.36 6 31.18-6.64 38.24-14.19 1.44-1.54 2.9-3.1 4.41-4.49 3.3-3 4.32-3.45 8.62-1.39a14.16 14.16 0 0 1 3 1.89c4.7 3.85 6.79 11.5 6.79 24.77v9.66c-5.94 0.73-12.05 1.55-18.4 2.39l-10.68 1.43c-6.29 0.83-16.19 2.19-27.93 3.82l-1 0.14c-38.31 5.31-96.21 13.33-112.13 14-55.35 2.52-113.11 7.35-157.64 35.74a66 66 0 0 0-15.89 14.29c-15.6 19.4-22.73 28.26-22.94 56.93-0.11 13.62 0.8 27.39 1.69 40.89s1.71 26 1.57 38.1c-0.05 4.26-1.39 6.15-4.31 10.3-4.14 5.88-9.81 13.93-9.81 28.33 0 18.1 3.25 25.7 6.41 33.09a81.43 81.43 0 0 1 6.25 21c0 0.23 0.07 0.46 0.12 0.69a159.84 159.84 0 0 1-35.94-17.27c-16.3-10.71-50.26-33-64.58-12.29-19.46 28.1 49 100.29 91.2 131.1q5 3.65 10.21 7.29l7.07 4.9c0.62 5.05 1.32 9.91 2.08 14.23 0 1-0.06 2-0.06 3a156 156 0 0 0 1.75 22.89c1.86 12.18 10.48 55.08 43.35 95.83 37.15 46.14 91.25 74 160.81 82.79 54.46 20.26 97.72 23.29 118.71 23.29A150.48 150.48 0 0 0 558 887a419.24 419.24 0 0 0 76.87-3.78c4.94 0.3 9.92 0.46 14.85 0.46 34.54 0 60.94-7.19 77-13.23a126.67 126.67 0 0 0 23-11.07 51.61 51.61 0 0 0 8.17-6.18 30.9 30.9 0 0 0 4.48-5.3 23.59 23.59 0 0 0 2-3.84c33.8-21.24 52.86-52.32 67.08-80 10.9-21.23 34.47-27.36 53.42-32.29 16.94-4.41 32.93-8.57 36.17-24.26 5.62-27.17-12.17-47.99-29.1-57.51zM769.69 541.66c29.15-12.56 33.78-8.38 34.5-6.81 1.6 3.47-3.87 13.37-19.69 27.66a246.7 246.7 0 0 1-54.82 36.87C705.51 611.2 674.08 624 645.35 618c-15.89-3.3-24.75-12.15-24.33-24.26 0.56-15.83 16.34-31.78 33.79-34.15 6.58-0.91 15.59-1.39 24.32-1.85 9.29-0.49 18.89-1 25.82-2 4.62-0.7 9.07-1.31 13.4-1.89 18.09-2.47 33.72-4.59 51.34-12.19zM206 621.23c-75.73-55.34-133.8-156-42.42-96.05 16.52 10.84 32.21 16.84 48.81 22 1.9 26.62 1.25 53.72 3.55 81.1-3.35-2.28-6.67-4.69-9.94-7.05z m701.47 82.39c-3.74 18.1-65.48 8.46-88.35 53-16.76 32.67-35.6 59.6-66.94 77.5a5.89 5.89 0 0 1 0 0.65 8.53 8.53 0 0 1-1.52 4.56 16.6 16.6 0 0 1-2.26 2.67 38.83 38.83 0 0 1-6.07 4.56 113.12 113.12 0 0 1-20.43 9.82c-15 5.63-39.66 12.34-72.14 12.34-5 0-10-0.19-14.94-0.49a432.09 432.09 0 0 1-59.19 4.22q-9 0-17.65-0.41a155.45 155.45 0 0 1-16.23 0.74c-20.56 0-62.49-3.08-115.36-23-66.63-8.12-118.22-34.32-153.34-77.93-30.71-38.08-38.71-77.92-40.43-89.22a141.85 141.85 0 0 1-1.62-20.79c0-1.39 0.07-2.74 0.11-4.1-1.46-7.89-2.5-15.76-3.26-23.6-2.66-27.56-1.91-54.83-4.11-81.63-0.68-8.29-1.64-16.54-3.08-24.74-5-28.41-12.44-24.5-12.44-51.72 0-19.43 13.9-20.87 14.12-38.45 0.29-25.4-3.47-52.84-3.26-79.06 0.18-24 4.77-29.58 20.08-48.6a51.37 51.37 0 0 1 12.33-11c43-27.43 100.88-31.32 150.83-33.59 21.66-1 115.14-14.56 142.19-18.11 14.68-1.92 28.16-3.85 40.88-5.17 0.28-7.52 0.28-14.94 0.29-22.73 0-12.94-1.86-26.6-11.87-34.81a28.23 28.23 0 0 0-5.84-3.71c-11-5.23-17.93-1.75-23.89 3.71-8.63 7.91-15.22 20-29.21 15.67-12.29-3.79-17.54-13.91-18.59-26.78-0.79-9.63 2-19.42 7.07-28a60.62 60.62 0 0 1 16.42-18.21 48.4 48.4 0 0 1 11.64-6.36 62.09 62.09 0 0 1 58 8.57 59.72 59.72 0 0 1 13.12 12.76 47.89 47.89 0 0 1 8 17.38c2.11 8.61 2.44 18.2 2.46 29.27 0-16.24 18.4-42.26 30.22-52 23.12-19 55.91-13.07 76.09 7.58 17.47 17.87 31.62 71.16-6.19 73.15-10.83 0.57-15.8-6.67-21.87-13.55a48.18 48.18 0 0 0-6.18-6.07c-15.76-12.46-28.23-15.18-38-11.63-16.36 5.91-25.35 29.24-29.93 54.15 17.48 0.38 34 3.41 51 11.26 18.88 8.71 40.14 28.43 46.5 52.41 7.82 29.39 15.13 135.85-1.48 238.43-3.27 0.45-6.58 0.91-10 1.43-6.35 1-15.66 1.44-24.66 1.92s-18.23 1-25.31 1.94c-23.51 3.19-43.29 23.61-44.06 45.53-0.64 18.22 12 31.8 33.8 36.34a87.47 87.47 0 0 0 17.7 1.76 122.16 122.16 0 0 0 32.21-4.73c-19.45 58.28-29 92.83-11.78 131.22 16.22 36.16 44.59 21.32 65.94-2.59 16.16-18.1 29-44.28 7.45-69.82-26.11-31-46-40.09-43.54-56.9a33.12 33.12 0 0 1 2.7-9c7.5-16.33 27.79-26.56 49-25.45a58.24 58.24 0 0 1 23 6c27.6 13.76 48.52 44 38.57 69.81 18.66-16.8 41.48-20.08 61-9 13.63 7.68 26.3 23.34 22.34 42.6zM700.79 648c4.2 7.8 11.35 14.76 19.53 22.74a330.81 330.81 0 0 1 23.53 24.8c12.72 15.09 10.38 32-7.19 51.66-14.14 15.84-25.48 20.35-30.84 19.54s-9.58-7.75-12.12-13.41c-13.27-29.6-8.63-56.45 7.09-105.33z" p-id="17966" fill="#1296db"></path><path d="M541.78 893.55c-21.27 0-65.08-3.05-120.12-23.42-70.79-9.09-126-37.63-164-84.84-33.79-41.89-42.66-86.07-44.57-98.62a161.94 161.94 0 0 1-1.82-23.77v-2.59c-0.58-3.34-1.15-7.14-1.7-11.33l-4.93-3.41c-3.77-2.63-7.15-5-10.34-7.38-23.8-17.39-51.22-44-69.85-67.67C99.08 538.09 91.44 514 101.84 499c9.78-14.13 26.22-12 38.29-7.82 13 4.57 25.83 13 34.31 18.55a145.49 145.49 0 0 0 24.72 12.9 77.23 77.23 0 0 0-3.72-10.1c-3.25-7.6-6.9-16.15-6.9-35.44 0-16.25 6.54-25.55 10.87-31.7 2.85-4 3.22-4.66 3.25-7 0.13-11.86-0.69-24.33-1.55-37.54v-0.44c-0.88-13.41-1.79-27.27-1.68-41 0.22-30.7 8.24-40.68 24.22-60.55a71.84 71.84 0 0 1 17.31-15.57c45.74-29.16 104.38-34.09 160.51-36.65 15.62-0.71 73.24-8.69 111.38-14l1.17-0.16c12.35-1.71 21.82-3 28-3.82l13.41-1.79 10.57-1.34V221c0-11.06-1.52-17.68-4.65-20.24a8.24 8.24 0 0 0-1.73-1.11c-0.5-0.24-0.87-0.4-1.14-0.51-0.24 0.2-0.58 0.5-1 0.92-1.3 1.19-2.58 2.56-3.94 4l-0.16 0.17c-7.45 8-21.33 22.84-44.23 15.79-11-3.4-29.94-13.64-32.44-44-1.07-13.21 2.28-26.9 9.7-39.59a80.38 80.38 0 0 1 21.83-24.19 67.79 67.79 0 0 1 16.41-8.92 79.78 79.78 0 0 1 34.16-4.68l2.24 0.2a83.25 83.25 0 0 1 40.11 15.63 78.65 78.65 0 0 1 17.35 17q0.72 1 1.4 2a94 94 0 0 1 10.86-10.84c29.69-24.35 73.84-20.46 102.69 9 15.27 15.62 30.64 52 19.82 79.77-6.36 16.31-20.23 25.85-39.06 26.84-0.86 0.05-1.71 0.08-2.53 0.08-17.69 0-27.4-11.29-33.32-18.16l-1.9-2.19a30.68 30.68 0 0 0-3.55-3.56c-9.93-7.83-16.38-9.56-19.12-8.57-3.2 1.16-7.8 7.16-11.8 18.25a137.93 137.93 0 0 1 34.42 10.76c22.67 10.47 49.18 34.71 57.29 65.26 4.78 18 8.23 54.08 9 94.25 0.64 33.38-0.27 83.8-7.93 138.11a120 120 0 0 0 27.1-7.85c7.48-3.22 18.78-8.08 29.79-9.77 18.95-2.91 27 5.37 30.43 12.83 6.33 13.71-1.41 29.77-24.38 50.52-1.67 1.5-3.39 3-5.2 4.52q0.93 0.43 1.85 0.89c23.36 11.65 42 32.6 49 54.59a67.12 67.12 0 0 1 51.48 6.67c18.64 10.54 38.2 33.57 32 63.78-4 19.25-22.49 24.07-40.4 28.74-18.79 4.89-40 10.42-49.72 29.31-14.37 27.93-33.61 59.37-67.73 81.3a28.89 28.89 0 0 1-1.75 3l-0.07 0.11a36.78 36.78 0 0 1-5.3 6.25 57.11 57.11 0 0 1-9.05 6.86 132.29 132.29 0 0 1-24 11.6c-16.53 6.21-43.65 13.6-79.07 13.6-4.71 0-9.63-0.15-14.62-0.44a422.68 422.68 0 0 1-76.89 3.77 164.36 164.36 0 0 1-16.47 0.8z m-418-393.89c-5.13 0-9.39 1.77-12.33 6-6.84 9.87 1.28 30.86 22.28 57.59 18 22.95 44.55 48.64 67.57 65.46 3.12 2.29 6.43 4.65 10.11 7.21l9.21 6.38 0.32 2.6c0.65 5.29 1.34 10 2 13.92l0.1 0.59v3.46a150.2 150.2 0 0 0 1.69 22c1.8 11.79 10.16 53.4 42.11 93 36.17 44.92 89 72.06 157 80.66l0.67 0.08 0.63 0.24c53.62 19.94 96.11 22.92 116.67 22.92a146 146 0 0 0 15.53-0.68l0.5-0.06h0.51a410.72 410.72 0 0 0 75.78-3.73l0.58-0.08h0.59c5 0.3 9.84 0.45 14.5 0.45 33.66 0 59.34-7 75-12.85a120.67 120.67 0 0 0 21.86-10.52 46 46 0 0 0 7.28-5.48 25.27 25.27 0 0 0 3.67-4.33 17.71 17.71 0 0 0 1.51-2.85l0.72-1.71 1.57-1c32.63-20.51 51.16-50.8 65-77.73 12.09-23.55 38.12-30.33 57.13-35.28 18.28-4.76 29.57-8.26 31.95-19.79 4.93-24-11.09-42.63-26.3-51.24-15.1-8.58-31.6-9.93-47.72-3.91L835 653.5l-1.42-6.62c-4.48-20.85-21.91-41.58-44.41-52.8a65.23 65.23 0 0 0-10-4l-10.86-3.33 9-6.91c4.68-3.58 8.78-7 12.52-10.35 11.4-10.3 18.61-19.15 21.4-26.3 2.06-5.26 1.25-8.34 0.18-10.64-5.59-12.18-25.86-5.42-45 2.79-13.37 5.77-26.08 8.2-37.81 10l-7.85 1.18 1.2-7.85c15.28-100.3 8.46-205.07 0.35-235.54-7.14-26.88-30.7-48.32-50.88-57.64a127.3 127.3 0 0 0-37.95-10.82l-6.79-0.86 1.91-6.57c3.66-12.6 10.29-28.44 21.12-32.34 7.8-2.84 18 0.65 30.36 10.38a41.11 41.11 0 0 1 5.1 5l2 2.26c5.69 6.61 12.77 14.84 26.33 14 14.2-0.75 24.15-7.46 28.81-19.41 8.58-22-4.29-54-17.29-67.34-24.58-25.12-61.94-28.64-86.9-8.17a100 100 0 0 0-14.41 15.57l-5.7 7.44-4.18-8.39a54 54 0 0 0-4.83-7.89A67.19 67.19 0 0 0 594.22 124a71.55 71.55 0 0 0-34.42-13.44l-2-0.18a68.05 68.05 0 0 0-29.12 4 56.12 56.12 0 0 0-13.56 7.39 68.58 68.58 0 0 0-18.63 20.64c-6.2 10.61-9 21.92-8.14 32.73 1.84 22.3 14.19 30.67 24.22 33.76 14.69 4.52 23.63-3.38 32.24-12.6l0.16-0.17c1.45-1.55 2.95-3.15 4.57-4.64 4.65-4.27 8.09-5.71 15.1-2.35a19.84 19.84 0 0 1 4.13 2.63c7.93 6.5 8.95 19.07 8.95 29.3v9.73l-0.05 5.12-5.08 0.63c-5.05 0.62-10.18 1.3-15.61 2l-13.41 1.79c-6.13 0.81-15.58 2.11-27.9 3.81l-1.18 0.16c-38.35 5.31-96.29 13.34-112.45 14.07-54.55 2.48-111.44 7.21-154.76 34.83a60.26 60.26 0 0 0-14.5 13.06c-15.15 18.84-21.43 26.65-21.62 53.28-0.11 13.29 0.79 26.94 1.65 40.14v0.44c0.88 13.43 1.71 26.12 1.57 38.44-0.08 6.08-2.3 9.24-5.38 13.6-3.9 5.53-8.74 12.42-8.74 25 0 16.9 2.88 23.64 5.93 30.78a87.49 87.49 0 0 1 6.64 22.31v0.12c0 0.16 0 0.32 0.08 0.48l1.93 10-9.59-3.33A166.31 166.31 0 0 1 168 519.54c-15.69-10.33-32.29-19.88-44.2-19.88z m418 379c-20.6 0-63.1-3-116.77-23.11-67.88-8.41-120.53-35.32-156.49-80-31.63-39.22-39.89-80.34-41.66-92a147.86 147.86 0 0 1-1.66-21.69c0-1.14 0-2.22 0.08-3.26v-0.41c-1.06-5.8-1.94-11.79-2.66-18.16l-10-6.91c-3.27-2.26-6.65-4.67-10-7.15a349.65 349.65 0 0 1-68.33-66.8c-13.88-18.12-28.79-42.08-21-53.29 3.69-5.33 10.58-6.39 20.48-3.17 8.32 2.71 19.46 8.63 33.12 17.59 16.74 11 32.65 16.74 47.34 21.33l2.74 0.85c-0.56-4.82-1.21-9.35-2-13.68a90.31 90.31 0 0 0-6.82-22.8c-3.08-7.22-5.75-13.45-5.75-29.9 0-11.85 4.63-18.44 8.35-23.73 3.18-4.51 5.68-8.08 5.77-14.8 0.14-12.51-0.7-25.33-1.59-38.9-0.87-13.2-1.77-26.86-1.66-40.14 0.19-25.91 5.91-33 21.2-52l0.18-0.22A57.54 57.54 0 0 1 248.38 294c42.88-27.33 99.44-32 153.7-34.49 16.21-0.73 74.31-8.78 112.75-14.1 12-1.67 22.46-3.11 28.94-4l11-1.46c8.68-1.16 17-2.27 25-3.18 0.12-5.51 0.13-11 0.13-16.82v-0.65c0-15.42-3-24.76-9.73-30.28a22.33 22.33 0 0 0-4.64-2.95c-8-3.78-12.41-1.86-17.42 2.73-1.62 1.49-3.2 3.17-4.86 4.95-6.88 7.35-15.43 16.5-30 12-9.4-2.9-21-10.79-22.7-31.89-0.84-10.35 1.87-21.22 7.85-31.45a66.28 66.28 0 0 1 18-20 54.14 54.14 0 0 1 13.06-7.12 67.78 67.78 0 0 1 63.5 9.34 65.34 65.34 0 0 1 14.38 14 53.78 53.78 0 0 1 8.94 19.46q0.29 1.17 0.53 2.35c6.66-11.53 15.58-22.29 22.75-28.17 24.08-19.77 60.19-16.33 84 8 13.95 14.27 24.33 45.78 16.82 65-3 7.75-10.14 17.16-26.88 18-12.61 0.66-19.09-6.86-24.81-13.5-0.58-0.67-1.16-1.35-1.75-2a43.26 43.26 0 0 0-5.42-5.35c-12.93-10.22-23.84-13.82-32.43-10.72-10.8 3.9-19.52 19.11-24.83 43.1a126.91 126.91 0 0 1 46.38 11.5c19.73 9.1 42.75 30 49.7 56.22 8.4 31.57 15.13 139.05-1.36 240.86l-0.69 4.27-4.29 0.59c-3.64 0.5-6.72 0.93-9.91 1.42-6.64 1-16.09 1.49-25.22 2-8.85 0.47-18 1-24.83 1.9-20.84 2.83-38.34 20.74-39 39.94-0.54 15.35 10.08 26.44 29.15 30.4a81.62 81.62 0 0 0 16.51 1.64 115.13 115.13 0 0 0 30.66-4.53l10.57-2.9-3.47 10.4c-18.79 56.3-28.61 90-12 127 4.87 10.85 11 16.92 18.2 18 10.21 1.58 24.07-6.48 38-22.12 8.94-10 14.49-19.91 16.5-29.43 2.48-11.76-0.51-22.46-9.16-32.72a337.65 337.65 0 0 0-24.07-25.38c-13.26-12.93-22.84-22.27-20.79-36.15a39.12 39.12 0 0 1 3.17-10.56q0.57-1.25 1.23-2.46c-20.48 8-43.47 13.55-65.36 9-18.68-3.88-29.51-15.17-29-30.19 0.66-18.78 18.45-37 38.85-39.74 6.81-0.94 16-1.43 24.79-1.89 9.15-0.49 18.62-1 25.26-2 4.57-0.7 9-1.3 13.27-1.88h0.21c17.67-2.4 32.93-4.47 49.81-11.75 17.06-7.35 37.27-14.44 42.13-3.88 4.13 9-9.19 23.7-21.08 34.45a240.1 240.1 0 0 1-27.77 21.42q1.12 0 2.24 0.08a63.79 63.79 0 0 1 25.29 6.59c24.29 12.11 44.59 36.73 44.36 61.69 17.85-10.32 37.78-10.78 55.45-0.77 14.59 8.26 30 26 25.26 48.94C911 715.6 898 719 882.88 722.93c-20.49 5.33-46 12-58.52 36.38-9.7 18.91-18.81 33.31-28.68 45.33a145.17 145.17 0 0 1-37.95 33.05 15.06 15.06 0 0 1-2.11 4.82l-0.12 0.18a22.29 22.29 0 0 1-3.09 3.58 44.53 44.53 0 0 1-7 5.27A118.83 118.83 0 0 1 724 861.88c-15.44 5.8-40.85 12.72-74.2 12.72-4.64 0-9.46-0.15-14.71-0.47a436.1 436.1 0 0 1-59.41 4.19c-5.89 0-11.77-0.13-17.48-0.4a164 164 0 0 1-16.44 0.72z m16.13-706.29a29.3 29.3 0 0 1 12.63 3.14 33.89 33.89 0 0 1 7 4.47c12.56 10.29 14 27.38 14 39.33v0.69c0 7.65 0 14.87-0.29 22.29l-0.19 5.08-5.06 0.52c-9.39 1-19.26 2.29-29.72 3.69l-11 1.46c-6.44 0.84-16.83 2.28-28.86 3.95-38.66 5.35-97.08 13.44-113.83 14.2-52.68 2.39-107.5 6.89-147.95 32.67a45.81 45.81 0 0 0-10.93 9.81l-0.16 0.2c-14.91 18.52-18.45 22.92-18.61 44.75-0.1 12.86 0.78 26.29 1.64 39.28 0.87 13.19 1.77 26.84 1.62 39.81-0.13 10.35-4.25 16.22-7.9 21.39-3.48 4.94-6.22 8.84-6.22 17 0 14.06 2 18.77 4.81 25.3a101.72 101.72 0 0 1 7.55 25.4c1.35 7.7 2.38 16 3.14 25.27 1 12.62 1.43 25.52 1.81 38 0.43 14.26 0.88 29 2.29 43.55 0.8 8.29 1.84 15.85 3.19 23.1l0.12 0.62-0.06 1.72c0 1-0.07 1.91-0.07 2.82a136.08 136.08 0 0 0 1.53 20c1.66 10.92 9.41 49.47 39.2 86.41C311.72 810.58 362 836.08 427.1 844l0.7 0.09 0.66 0.25c52.25 19.67 93.41 22.6 113.3 22.6a150 150 0 0 0 15.59-0.71h0.92c5.67 0.27 11.51 0.41 17.37 0.41a424.62 424.62 0 0 0 58.36-4.19l0.58-0.08h0.59c5.24 0.32 10 0.48 14.58 0.48 31.6 0 55.55-6.51 70.08-12a107.23 107.23 0 0 0 19.34-9.27 33.34 33.34 0 0 0 5.2-3.88 10.78 10.78 0 0 0 1.47-1.68 2.65 2.65 0 0 0 0.54-1.45v-0.26l-0.15-3.56 3.09-1.77C781.8 810.51 799.58 782 814 754c14.93-29.07 44.43-36.75 66-42.36 9.89-2.57 21.09-5.49 21.85-9.16 3.43-16.75-8.39-30.08-19.56-36.4-17.27-9.79-37.52-6.68-54.17 8.3l-18.13 16.32 8.76-22.77c6.93-18-4.75-47-35.72-62.47a52.13 52.13 0 0 0-20.75-5.46c-19.12-1-36.94 8.07-43.36 22a27.39 27.39 0 0 0-2.23 7.4c-1.13 7.64 4.51 13.51 17.38 26.05a347.62 347.62 0 0 1 24.85 26.22c19.3 22.89 16.61 50.41-7.56 77.48-21.67 24.26-38.37 27.48-48.56 25.89-11.38-1.76-20.49-10.11-27.08-24.81-17.28-38.48-8.75-73.7 8.26-125.48a117.31 117.31 0 0 1-23.35 2.45 93.31 93.31 0 0 1-18.89-1.88c-24.46-5.09-39.2-21.29-38.46-42.27 0.87-24.63 22.9-47.56 49.12-51.12 7.32-1 16.71-1.51 25.79-2 8.87-0.47 18-1 24.1-1.86 1.92-0.29 3.79-0.56 5.77-0.84 8.58-55.21 9.73-107.16 9.15-141.36-0.74-43.85-4.67-77-8.23-90.36-6-22.53-26.05-40.64-43.3-48.6-15-6.92-30.44-10.32-48.69-10.72l-6.87-0.15 1.24-6.76c6.07-33 17.4-52.71 33.7-58.6 12.66-4.57 27.35-0.35 43.66 12.55a54 54 0 0 1 6.95 6.8c0.62 0.71 1.23 1.42 1.84 2.12 5.55 6.45 8.75 9.79 15.33 9.45 8.55-0.45 14-3.92 16.6-10.61 5.71-14.62-3.08-41.15-14.29-52.6-16.6-17-46.14-25.25-68.2-7.15-11 9.06-28.08 33.51-28.08 47.43h-11.7c0-11.5-0.4-20.18-2.29-27.89a42.3 42.3 0 0 0-7-15.31A53.9 53.9 0 0 0 586 134.08a56.1 56.1 0 0 0-52.55-7.8 42.47 42.47 0 0 0-10.21 5.6 54.49 54.49 0 0 0-14.82 16.43c-4.76 8.14-6.94 16.64-6.29 24.58 1 11.87 5.71 19 14.49 21.66 7.26 2.24 11.18-1.48 18-8.81 1.74-1.86 3.55-3.79 5.5-5.58 4.07-3.67 9.8-7.81 17.77-7.81zM122.83 512.68c-0.17 0.81-0.47 4.23 3.66 12.82 3.74 7.78 9.94 17.35 17.93 27.66a338.82 338.82 0 0 0 64.86 63.18c-0.6-10.64-0.88-21.22-1.15-31.54-0.29-10.95-0.59-22.22-1.27-33.24-14.43-4.66-30-10.68-46.44-21.5-28.16-18.46-36.28-17.7-37.59-17.38zM772 547c-18.36 7.92-34.35 10.09-52.87 12.6h-0.21c-4.23 0.57-8.6 1.17-13.1 1.85-7.21 1.08-17 1.6-26.39 2.1-8.6 0.46-17.49 0.93-23.83 1.8C641 567.39 627.33 581 626.87 594c-0.43 12.3 12.14 16.76 19.67 18.33 27 5.6 57.24-6.77 80.57-18.17a240.67 240.67 0 0 0 53.46-36c10.39-9.39 15.13-15.89 17-19.36-3.51 0.33-10.94 1.93-25.57 8.2z m26.6-10.84z m-91.46 236.49a14.65 14.65 0 0 1-2.18-0.16c-6.47-1-12-6.65-16.59-16.8-14.14-31.47-9.31-59.22 6.85-109.51l4.2-13.07 6.52 12.08c3.78 7 10.59 13.64 18.47 21.32l0.17 0.16a334.17 334.17 0 0 1 23.76 25.06c14.72 17.45 12.26 37.41-7.31 59.32-12.24 13.72-24.69 21.6-33.89 21.6zM702.84 661c-15.08 50-13.27 68.78-3.8 89.86 3.36 7.5 6.4 9.83 7.68 10 2.23 0.34 11.77-2.18 25.58-17.66 20.37-22.81 13.8-36 7.08-44a324.47 324.47 0 0 0-23-24.23l-0.17-0.16c-4.93-4.75-9.5-9.21-13.37-13.81z" p-id="17967" fill="#1296db"></path><path d="M343.13 467.37c74.33-17.91 179.32 4.48 179.32 4.48-130.87-37.5-179.32-4.48-179.32-4.48z" p-id="17968" fill="#1296db"></path><path d="M504 450.17c31.17 3.74 63.41 7.59 96.52 7 48.67-0.91 53.87-30.21 54.3-39.17 0.67-13.54-10.36-28.23-19.93-31.38-5.4-1.77-10.24 0-13.26 4.87-1.59 2.56-2 4.92-1.29 7 1.31 3.71 5.75 5.16 9.67 6.45 1.11 0.36 2.19 0.71 3.11 1.1 6.1 2.56 12 7.93 11.17 11.84-5.85 26.5-44.65 23.83-138.39 17.36l-23.81-1.63a660.8 660.8 0 0 0-85.94-0.56A452.33 452.33 0 0 0 323 443.19a311.82 311.82 0 0 0-49.44 15.42 240.14 240.14 0 0 0-28.89 14.21c-1.42 0.8-2.82 1.64-4.22 2.48-1.14 0.68-2.29 1.37-3.42 2l-1 0.59c-0.4 0.24-0.79 0.48-1.22 0.7a15.93 15.93 0 0 1 0.89-3.62c6.56-17.6 3-20.6 1.82-21.59l-1.12-0.94-1.31 0.62c-2.72 1.28-4 5.21-5.57 10.63a34.66 34.66 0 0 1-1.14 3.57c-0.49 1.11-1 2.2-1.52 3.3a53.34 53.34 0 0 0-4 10.42c-1.26 5.47 0.1 9.92 3.62 11.9A9.06 9.06 0 0 0 231 494c4.79 0 10.18-2.89 13.31-5.46 21.27-17.42 79.27-38.7 156.33-44.25 33.82-2.46 67.59 1.6 103.36 5.88z" p-id="17969" fill="#1296db"></path><path d="M231 497.5a12.51 12.51 0 0 1-6.23-1.54c-5-2.79-6.95-8.68-5.32-15.75a56.05 56.05 0 0 1 4.26-11.12c0.52-1.11 1-2.16 1.48-3.22 0.23-0.53 0.66-2 1-3.12 1.81-6.32 3.4-10.93 7.45-12.84l3.35-1.58 2.84 2.39c2.76 2.33 5.21 6.77 1 20.3l2.16-1.25a243.42 243.42 0 0 1 29.28-14.4 315.3 315.3 0 0 1 50-15.6 455.72 455.72 0 0 1 73.72-10.22 664.45 664.45 0 0 1 86.4 0.56l23.82 1.63c91.6 6.32 129.52 8.94 134.72-14.61 0.2-1.12-3.12-5.34-9.1-7.84-0.75-0.31-1.71-0.63-2.72-1h-0.12c-4.46-1.46-10-3.27-11.89-8.62-0.76-2.16-1.1-5.65 1.62-10 3.89-6.26 10.37-8.64 17.34-6.36 10.95 3.6 23.09 19.62 22.34 34.89-0.47 9.72-6 41.53-57.74 42.5-33.43 0.6-65.74-3.27-97-7h-0.05c-35.57-4.26-69.16-8.29-102.67-5.87-76.3 5.5-133.5 26.39-154.36 43.47-3.58 2.83-9.78 6.2-15.58 6.2z m4.82-40.5c-1.18 1.63-2.23 5.31-2.9 7.68a35.5 35.5 0 0 1-1.3 4c-0.48 1.1-1 2.2-1.52 3.31a51 51 0 0 0-3.81 9.79c-0.88 3.84-0.16 6.86 1.93 8a5.61 5.61 0 0 0 2.78 0.64c3.71 0 8.35-2.42 11.09-4.66 21.69-17.76 80.48-39.43 158.3-45 34.18-2.47 68.1 1.59 104 5.9h0.05c31 3.72 63.1 7.56 96 7 19.77-0.37 34.12-5.54 42.65-15.36a33.89 33.89 0 0 0 8.2-20.47c0.58-11.72-9.15-25.13-17.52-27.87-3.85-1.26-7-0.09-9.18 3.39-1 1.62-1.33 3-1 4 0.73 2.08 4.3 3.25 7.45 4.27h0.12c1.1 0.36 2.23 0.73 3.25 1.15 7.45 3.13 14.62 9.74 13.25 15.85-4.07 18.41-22.18 22.35-39.37 23.77-22.42 1.86-56.09-0.47-102.68-3.68l-23.8-1.63a657.36 657.36 0 0 0-85.49-0.56 448.78 448.78 0 0 0-72.59 10.06 308.37 308.37 0 0 0-48.89 15.25 236.45 236.45 0 0 0-28.46 14c-1.43 0.81-2.83 1.65-4.18 2.46s-2.34 1.4-3.47 2.06l-0.93 0.55-0.09 0.05c-0.43 0.26-0.85 0.51-1.31 0.75l-5.79 3 0.66-6.5a19.34 19.34 0 0 1 1.09-4.46c3.53-9.36 4.09-14.61 3.42-16.74z" p-id="17970" fill="#1296db"></path></svg>